<?xml version="1.0" encoding="utf-8"?>
<!-- Generator: Adobe Illustrator 15.0.0, SVG Export Plug-In  -->
<!DOCTYPE svg PUBLIC "-//W3C//DTD SVG 1.1//EN" "http://www.w3.org/Graphics/SVG/1.1/DTD/svg11.dtd" [
	<!ENTITY ns_flows "http://ns.adobe.com/Flows/1.0/">
]>
<svg version="1.1"
	 xmlns="http://www.w3.org/2000/svg" xmlns:xlink="http://www.w3.org/1999/xlink" xmlns:a="http://ns.adobe.com/AdobeSVGViewerExtensions/3.0/"
	 x="0px" y="0px" width="189px" height="27px" viewBox="-9.002 -6 189 27"
	 overflow="visible" enable-background="new -9.002 -6 189 27" xml:space="preserve">
<defs>
</defs>
<path fill="#2B2B2B" d="M51.499,8.994l0.979-2.157c-0.914-0.724-1.48-1.729-1.48-2.84C50.998,1.79,53.235,0,55.995,0
	s4.997,1.79,4.997,3.997c0,0.037-0.001,0.074-0.002,0.111c-0.184-0.013-0.368-0.02-0.554-0.02c-0.464,0-0.921,0.04-1.365,0.115
	c0.011-0.066,0.018-0.136,0.018-0.207c0-0.644-0.47-1.117-0.75-1.341c-0.599-0.478-1.453-0.753-2.344-0.753
	c-0.892,0-1.745,0.275-2.344,0.753c-0.28,0.224-0.75,0.697-0.75,1.341c0,0.645,0.47,1.117,0.75,1.341
	c0.453,0.362,1.054,0.607,1.706,0.705c-0.393,0.39-0.716,0.819-0.963,1.286c-0.069,0.132-0.133,0.266-0.189,0.401L51.499,8.994z"/>
<g>
	<path fill="#2B2B2B" d="M65.988,9.438c0-2.452-2.485-4.441-5.552-4.441s-5.552,1.989-5.552,4.441c0,2.453,2.485,4.441,5.552,4.441
		c0.555,0,1.09-0.065,1.596-0.187l2.457,1.296l-0.323-2.26C65.286,11.917,65.988,10.744,65.988,9.438z M56.788,9.438
		c0-0.805,0.571-1.381,0.912-1.654c0.701-0.562,1.699-0.883,2.736-0.883s2.035,0.321,2.736,0.883
		c0.341,0.273,0.912,0.85,0.912,1.654s-0.571,1.383-0.912,1.654c-0.701,0.562-1.699,0.885-2.736,0.885s-2.035-0.322-2.736-0.885
		C57.359,10.821,56.788,10.243,56.788,9.438z"/>
</g>
<rect x="81.003" y="5.01" fill="#838383" width="9" height="1"/>
<rect x="81.003" y="7.01" fill="#838383" width="9" height="1"/>
<polygon fill="#2B2B2B" points="35.998,4.359 34.647,3.01 31.498,6.159 28.348,3.01 26.998,4.359 30.147,7.509 26.998,10.659 
	28.348,12.01 31.498,8.86 34.647,12.01 35.998,10.659 32.848,7.509 "/>
<polygon fill="#2B2B2B" points="4.501,10.497 9,5.998 7.651,4.647 4.501,7.797 1.351,4.647 0,5.997 "/>
<polygon fill="#2B2B2B" points="112.501,4.585 108.002,9.084 109.352,10.435 112.501,7.285 115.652,10.435 117.002,9.085 "/>
<polygon fill="#2B2B2B" points="136.003,4.646 136.003,11.009 137.913,11.01 137.913,6.555 142.368,6.555 142.368,4.646 "/>
</svg>
