<?xml version="1.0" encoding="utf-8"?>
<!-- Generator: Adobe Illustrator 16.0.3, SVG Export Plug-In . SVG Version: 6.00 Build 0)  -->
<!DOCTYPE svg PUBLIC "-//W3C//DTD SVG 1.1//EN" "http://www.w3.org/Graphics/SVG/1.1/DTD/svg11.dtd">
<svg version="1.1" xmlns="http://www.w3.org/2000/svg" xmlns:xlink="http://www.w3.org/1999/xlink" x="0px" y="0px" width="32px"
	 height="100px" viewBox="0 0 32 100" enable-background="new 0 0 32 100" xml:space="preserve">
<g id="Switzerland">
	<rect x="16" y="40" fill="#C61632" width="16" height="10"/>
	<rect x="23" y="42" fill="#FFFFFF" width="2" height="6"/>
	<rect x="21" y="44" fill="#FFFFFF" width="6" height="2"/>
</g>
<g id="Germany">
	<rect x="16" fill="#010102" width="16" height="3.33"/>
	<rect x="16" y="3.335" fill="#C61632" width="16" height="3.33"/>
	<rect x="16" y="6.665" fill="#FFCE01" width="16" height="3.33"/>
</g>
<g id="Netherlands">
	<rect x="16" y="10.005" fill="#C61632" width="16" height="3.33"/>
	<rect x="16" y="13.34" fill="#FFFFFF" width="16" height="3.33"/>
	<rect x="16" y="16.67" fill="#242854" width="16" height="3.33"/>
</g>
<g id="Sweden">
	<rect x="16" y="50" fill="#1454A1" width="16" height="10"/>
	<rect x="20" y="50" fill="#FCEB26" width="2" height="10"/>
	<rect x="16.001" y="54" fill="#FCEB26" width="16" height="2"/>
</g>
<g id="UK">
	<rect x="16" y="60" fill="#242854" width="16" height="10"/>
	<polygon fill="#FFFFFF" points="32,70 32,69.131 18.303,60 16,60 16,60.869 29.698,70 	"/>
	<polygon fill="#FFFFFF" points="32,60 32,60.869 18.303,70 16,70 16,69.131 29.698,60 	"/>
	<polygon fill="#C61731" points="31.951,70 16.951,60 16.05,60 31.05,70 	"/>
	<polygon fill="#C61731" points="31.951,60 16.951,70 16.05,70 31.05,60 	"/>
	<rect x="16.001" y="63.3" fill="#FFFFFF" width="16" height="3.4"/>
	<rect x="22.3" y="60" fill="#FFFFFF" width="3.4" height="10"/>
	<rect x="23" y="60" fill="#C61632" width="2" height="10"/>
	<rect x="16.001" y="64" fill="#C61632" width="16" height="2"/>
</g>
<g id="Australia">
	<rect x="16" y="70" fill="#242854" width="16" height="10"/>
	<polygon fill="#FFFFFF" points="24,75 24,74.565 17.152,70 16,70 16,70.434 22.849,75 	"/>
	<polygon fill="#FFFFFF" points="24,70 24,70.434 17.152,75 16,75 16,74.565 22.849,70 	"/>
	<polygon fill="#C61731" points="23.976,75 16.476,70 16.025,70 23.525,75 	"/>
	<polygon fill="#C61731" points="23.976,70 16.476,75 16.025,75 23.525,70 	"/>
	<rect x="16" y="71.65" fill="#FFFFFF" width="8" height="1.7"/>
	<rect x="19.15" y="70" fill="#FFFFFF" width="1.7" height="5"/>
	<rect x="19.5" y="70" fill="#C61632" width="1" height="5"/>
	<rect x="16" y="72" fill="#C61632" width="8" height="1"/>
	<polygon fill="#FFFFFF" points="20,76 20.256,77.035 21.203,76.594 20.573,77.443 21.5,77.929 20.459,77.955 20.668,79 20,78.181 
		19.333,79 19.542,77.955 18.5,77.929 19.428,77.443 18.798,76.594 19.745,77.035 	"/>
	<polygon fill="#FFFFFF" points="28,71 28.171,71.69 28.802,71.396 28.382,71.962 29,72.286 28.307,72.303 28.446,73 28,72.454 
		27.555,73 27.694,72.303 27,72.286 27.619,71.962 27.199,71.396 27.83,71.69 	"/>
	<polygon fill="#FFFFFF" points="26,73 26.171,73.69 26.802,73.396 26.382,73.962 27,74.286 26.307,74.303 26.446,75 26,74.454 
		25.555,75 25.694,74.303 25,74.286 25.619,73.962 25.199,73.396 25.83,73.69 	"/>
	<polygon fill="#FFFFFF" points="30,73 30.171,73.69 30.802,73.396 30.382,73.962 31,74.286 30.307,74.303 30.446,75 30,74.454 
		29.555,75 29.694,74.303 29,74.286 29.619,73.962 29.199,73.396 29.83,73.69 	"/>
	<polygon fill="#FFFFFF" points="28.5,75 28.585,75.345 28.901,75.198 28.691,75.481 29,75.643 28.654,75.651 28.723,76 
		28.5,75.727 28.278,76 28.347,75.651 28,75.643 28.31,75.481 28.1,75.198 28.416,75.345 	"/>
	<polygon fill="#FFFFFF" points="28,77 28.17,77.689 28.802,77.396 28.382,77.963 29,78.285 28.307,78.303 28.446,79 28,78.454 
		27.555,79 27.694,78.303 27,78.285 27.619,77.963 27.199,77.396 27.831,77.689 	"/>
</g>
<g id="Denmark">
	<rect x="16" y="90" fill="#C61632" width="16" height="10"/>
	<rect x="20" y="90" fill="#FFFFFF" width="2" height="10"/>
	<rect x="16" y="94" fill="#FFFFFF" width="16" height="2"/>
</g>
<g id="USA">
	<rect x="16" y="20" fill="#C61632" width="16" height="0.9"/>
	<rect x="16" y="20.911" fill="#FFFFFF" width="16" height="0.9"/>
	<rect x="16" y="21.822" fill="#C61632" width="16" height="0.9"/>
	<rect x="16" y="22.732" fill="#FFFFFF" width="16" height="0.9"/>
	<rect x="16" y="23.644" fill="#C61632" width="16" height="0.9"/>
	<rect x="16" y="24.554" fill="#FFFFFF" width="16" height="0.9"/>
	<rect x="16" y="25.465" fill="#C61632" width="16" height="0.9"/>
	<rect x="16" y="26.376" fill="#FFFFFF" width="16" height="0.9"/>
	<rect x="16" y="27.287" fill="#C61632" width="16" height="0.9"/>
	<rect x="16" y="28.198" fill="#FFFFFF" width="16" height="0.9"/>
	<rect x="16" y="29.108" fill="#C61632" width="16" height="0.9"/>
	<rect x="16" y="20" fill="#242854" width="7" height="4.549"/>
	<g>
		<polygon fill="#FFFFFF" points="17.5,20.772 17.655,21.101 18,21.154 17.75,21.41 17.81,21.772 17.5,21.601 17.191,21.772 
			17.25,21.41 17,21.154 17.346,21.101 		"/>
		<polygon fill="#FFFFFF" points="19.5,20.772 19.655,21.101 20,21.154 19.75,21.41 19.81,21.772 19.5,21.601 19.191,21.772 
			19.25,21.41 19,21.154 19.346,21.101 		"/>
		<polygon fill="#FFFFFF" points="18.5,21.772 18.655,22.101 19,22.154 18.75,22.41 18.81,22.772 18.5,22.601 18.191,22.772 
			18.25,22.41 18,22.154 18.346,22.101 		"/>
		<polygon fill="#FFFFFF" points="21.5,20.772 21.655,21.101 22,21.154 21.75,21.41 21.81,21.772 21.5,21.601 21.191,21.772 
			21.25,21.41 21,21.154 21.346,21.101 		"/>
		<polygon fill="#FFFFFF" points="20.5,21.772 20.655,22.101 21,22.154 20.75,22.41 20.81,22.772 20.5,22.601 20.191,22.772 
			20.25,22.41 20,22.154 20.346,22.101 		"/>
		<polygon fill="#FFFFFF" points="21.5,22.772 21.655,23.101 22,23.154 21.75,23.41 21.81,23.772 21.5,23.601 21.191,23.772 
			21.25,23.41 21,23.154 21.346,23.101 		"/>
		<polygon fill="#FFFFFF" points="19.5,22.772 19.655,23.101 20,23.154 19.75,23.41 19.81,23.772 19.5,23.601 19.191,23.772 
			19.25,23.41 19,23.154 19.346,23.101 		"/>
		<polygon fill="#FFFFFF" points="17.5,22.772 17.655,23.101 18,23.154 17.75,23.41 17.81,23.772 17.5,23.601 17.191,23.772 
			17.25,23.41 17,23.154 17.346,23.101 		"/>
	</g>
</g>
<g id="France">
	<rect x="16" y="30" fill="#242854" width="5.33" height="10"/>
	<rect x="21.331" y="30" fill="#FFFFFF" width="5.33" height="10"/>
	<rect x="26.661" y="30" fill="#C61632" width="5.33" height="10"/>
</g>
<g id="Canada">
	<rect x="16" y="80.005" fill="#C61632" width="5.33" height="10"/>
	<rect x="26.661" y="80.005" fill="#C61632" width="5.33" height="10"/>
	<rect x="21.335" y="80.005" fill="#FFFFFF" width="5.33" height="10"/>
	<path fill="#C61632" d="M24.845,86.215L26,85.657c-0.064-0.058-0.127-0.115-0.191-0.169c-0.021-0.018-0.026-0.033-0.02-0.062
		c0.05-0.199,0.147-0.606,0.148-0.615c-0.041,0.002-0.358,0.026-0.479,0.036c-0.025,0.002-0.036-0.008-0.045-0.031
		c-0.043-0.119-0.087-0.234-0.134-0.359c-0.025,0.028-0.681,0.878-0.681,0.878l0.241-1.662c-0.144,0.096-0.283,0.189-0.427,0.287
		c-0.137-0.317-0.274-0.631-0.415-0.954c-0.14,0.322-0.277,0.637-0.415,0.954c-0.144-0.097-0.283-0.19-0.427-0.287l0.241,1.662
		c0,0-0.656-0.851-0.681-0.878c-0.047,0.125-0.091,0.24-0.134,0.359c-0.009,0.023-0.02,0.033-0.045,0.031
		c-0.12-0.01-0.479-0.036-0.479-0.036s0.099,0.417,0.148,0.615c0.007,0.029,0.001,0.044-0.02,0.062
		C22.127,85.542,22.065,85.6,22,85.657l1.156,0.558l-0.276,0.663c-0.027,0.071-0.048,0.127-0.048,0.127L24,86.932l1.168,0.073
		L24.845,86.215z"/>
	<rect x="0" y="40" fill="#3B3B3B" width="16" height="10"/>
	<rect x="7" y="42" fill="#FFFFFF" width="2" height="6"/>
	<rect x="5" y="44" fill="#FFFFFF" width="6" height="2"/>
	<rect x="0" width="16" height="3.33"/>
	<rect x="0" y="3.335" fill="#3B3B3B" width="16" height="3.33"/>
	<rect x="0" y="6.665" fill="#C8C8C8" width="16" height="3.33"/>
	<rect x="0" y="10.005" fill="#3B3B3B" width="16" height="3.33"/>
	<rect x="0" y="13.34" fill="#FFFFFF" width="16" height="3.33"/>
	<rect x="0" y="16.67" width="16" height="3.33"/>
	<rect x="0" y="50" fill="#505050" width="16" height="10"/>
	<rect x="4" y="50" fill="#E3E3E3" width="2" height="10"/>
	<rect x="0.001" y="54" fill="#E3E3E3" width="16" height="2"/>
	<rect x="0" y="60" width="16" height="10"/>
	<polygon fill="#FFFFFF" points="16,70 16,69.131 2.303,60 0,60 0,60.869 13.698,70 	"/>
	<polygon fill="#FFFFFF" points="16,60 16,60.869 2.303,70 0,70 0,69.131 13.698,60 	"/>
	<polygon fill="#3B3B3B" points="15.951,70 0.951,60 0.05,60 15.05,70 	"/>
	<polygon fill="#3B3B3B" points="15.951,60 0.951,70 0.05,70 15.05,60 	"/>
	<rect x="0.001" y="63.3" fill="#FFFFFF" width="16" height="3.4"/>
	<rect x="6.3" y="60" fill="#FFFFFF" width="3.4" height="10"/>
	<rect x="7" y="60" fill="#3B3B3B" width="2" height="10"/>
	<rect x="0.001" y="64" fill="#3B3B3B" width="16" height="2"/>
	<rect x="0" y="70" width="16" height="10"/>
	<polygon fill="#FFFFFF" points="8,75 8,74.565 1.152,70 0,70 0,70.434 6.849,75 	"/>
	<polygon fill="#FFFFFF" points="8,70 8,70.434 1.152,75 0,75 0,74.565 6.849,70 	"/>
	<polygon fill="#3B3B3B" points="7.976,75 0.476,70 0.025,70 7.525,75 	"/>
	<polygon fill="#3B3B3B" points="7.976,70 0.476,75 0.025,75 7.525,70 	"/>
	<rect x="0" y="71.65" fill="#FFFFFF" width="8" height="1.7"/>
	<rect x="3.15" y="70" fill="#FFFFFF" width="1.7" height="5"/>
	<rect x="3.5" y="70" fill="#3B3B3B" width="1" height="5"/>
	<rect x="0" y="72" fill="#3B3B3B" width="8" height="1"/>
	<polygon fill="#FFFFFF" points="4,76 4.256,77.035 5.203,76.594 4.573,77.443 5.5,77.929 4.459,77.955 4.668,79 4,78.181 3.333,79 
		3.542,77.955 2.5,77.929 3.428,77.443 2.798,76.594 3.745,77.035 	"/>
	<polygon fill="#FFFFFF" points="12,71 12.171,71.69 12.802,71.396 12.382,71.962 13,72.286 12.307,72.303 12.446,73 12,72.454 
		11.555,73 11.694,72.303 11,72.286 11.619,71.962 11.199,71.396 11.83,71.69 	"/>
	<polygon fill="#FFFFFF" points="10,73 10.171,73.69 10.802,73.396 10.382,73.962 11,74.286 10.307,74.303 10.446,75 10,74.454 
		9.555,75 9.694,74.303 9,74.286 9.619,73.962 9.199,73.396 9.83,73.69 	"/>
	<polygon fill="#FFFFFF" points="14,73 14.171,73.69 14.802,73.396 14.382,73.962 15,74.286 14.307,74.303 14.446,75 14,74.454 
		13.555,75 13.694,74.303 13,74.286 13.619,73.962 13.199,73.396 13.83,73.69 	"/>
	<polygon fill="#FFFFFF" points="12.5,75 12.585,75.345 12.901,75.198 12.691,75.481 13,75.643 12.654,75.651 12.723,76 
		12.5,75.727 12.278,76 12.347,75.651 12,75.643 12.31,75.481 12.1,75.198 12.416,75.345 	"/>
	<polygon fill="#FFFFFF" points="12,77 12.17,77.689 12.802,77.396 12.382,77.963 13,78.285 12.307,78.303 12.446,79 12,78.454 
		11.555,79 11.694,78.303 11,78.285 11.619,77.963 11.199,77.396 11.831,77.689 	"/>
	<rect y="90" fill="#3B3B3B" width="16" height="10"/>
	<rect x="4" y="90" fill="#FFFFFF" width="2" height="10"/>
	<rect x="0" y="94" fill="#FFFFFF" width="16" height="2"/>
	<rect x="0" y="20" fill="#3B3B3B" width="16" height="0.9"/>
	<rect x="0" y="20.911" fill="#FFFFFF" width="16" height="0.9"/>
	<rect x="0" y="21.822" fill="#3B3B3B" width="16" height="0.9"/>
	<rect x="0" y="22.732" fill="#FFFFFF" width="16" height="0.9"/>
	<rect x="0" y="23.644" fill="#3B3B3B" width="16" height="0.9"/>
	<rect x="0" y="24.554" fill="#FFFFFF" width="16" height="0.9"/>
	<rect x="0" y="25.465" fill="#3B3B3B" width="16" height="0.9"/>
	<rect x="0" y="26.376" fill="#FFFFFF" width="16" height="0.9"/>
	<rect x="0" y="27.287" fill="#3B3B3B" width="16" height="0.9"/>
	<rect x="0" y="28.198" fill="#FFFFFF" width="16" height="0.9"/>
	<rect x="0" y="29.108" fill="#3B3B3B" width="16" height="0.9"/>
	<rect x="0" y="20" width="7" height="4.549"/>
	<g>
		<polygon fill="#FFFFFF" points="1.5,20.772 1.655,21.101 2,21.154 1.75,21.41 1.81,21.772 1.5,21.601 1.191,21.772 1.25,21.41 
			1,21.154 1.346,21.101 		"/>
		<polygon fill="#FFFFFF" points="3.5,20.772 3.655,21.101 4,21.154 3.75,21.41 3.81,21.772 3.5,21.601 3.191,21.772 3.25,21.41 
			3,21.154 3.346,21.101 		"/>
		<polygon fill="#FFFFFF" points="2.5,21.772 2.655,22.101 3,22.154 2.75,22.41 2.81,22.772 2.5,22.601 2.191,22.772 2.25,22.41 
			2,22.154 2.346,22.101 		"/>
		<polygon fill="#FFFFFF" points="5.5,20.772 5.655,21.101 6,21.154 5.75,21.41 5.81,21.772 5.5,21.601 5.191,21.772 5.25,21.41 
			5,21.154 5.346,21.101 		"/>
		<polygon fill="#FFFFFF" points="4.5,21.772 4.655,22.101 5,22.154 4.75,22.41 4.81,22.772 4.5,22.601 4.191,22.772 4.25,22.41 
			4,22.154 4.346,22.101 		"/>
		<polygon fill="#FFFFFF" points="5.5,22.772 5.655,23.101 6,23.154 5.75,23.41 5.81,23.772 5.5,23.601 5.191,23.772 5.25,23.41 
			5,23.154 5.346,23.101 		"/>
		<polygon fill="#FFFFFF" points="3.5,22.772 3.655,23.101 4,23.154 3.75,23.41 3.81,23.772 3.5,23.601 3.191,23.772 3.25,23.41 
			3,23.154 3.346,23.101 		"/>
		<polygon fill="#FFFFFF" points="1.5,22.772 1.655,23.101 2,23.154 1.75,23.41 1.81,23.772 1.5,23.601 1.191,23.772 1.25,23.41 
			1,23.154 1.346,23.101 		"/>
	</g>
	<rect x="0" y="30" width="5.33" height="10"/>
	<rect x="5.331" y="30" fill="#FFFFFF" width="5.33" height="10"/>
	<rect x="10.661" y="30" fill="#3B3B3B" width="5.33" height="10"/>
	<rect x="0" y="80.005" fill="#3B3B3B" width="5.33" height="10"/>
	<rect x="10.661" y="80.005" fill="#3B3B3B" width="5.33" height="10"/>
	<rect x="5.335" y="80.005" fill="#FFFFFF" width="5.33" height="10"/>
	<path fill="#3B3B3B" d="M8.845,86.215L10,85.657C9.936,85.6,9.874,85.542,9.81,85.488c-0.021-0.018-0.026-0.033-0.02-0.062
		c0.05-0.199,0.147-0.606,0.148-0.615c-0.041,0.002-0.358,0.026-0.479,0.036c-0.025,0.002-0.036-0.008-0.045-0.031
		c-0.043-0.119-0.087-0.234-0.134-0.359c-0.025,0.028-0.681,0.878-0.681,0.878l0.241-1.662c-0.144,0.096-0.283,0.189-0.427,0.287
		C8.278,83.642,8.141,83.327,8,83.005c-0.14,0.322-0.277,0.637-0.415,0.954c-0.144-0.097-0.283-0.19-0.427-0.287L7.4,85.334
		c0,0-0.656-0.851-0.681-0.878c-0.047,0.125-0.091,0.24-0.134,0.359c-0.009,0.023-0.02,0.033-0.045,0.031
		c-0.12-0.01-0.479-0.036-0.479-0.036s0.099,0.417,0.148,0.615c0.007,0.029,0.001,0.044-0.02,0.062
		C6.127,85.542,6.065,85.6,6,85.657l1.156,0.558L6.88,86.878c-0.027,0.071-0.048,0.127-0.048,0.127L8,86.932l1.168,0.073
		L8.845,86.215z"/>
</g>
</svg>
