<?xml version="1.0" encoding="UTF-8" standalone="no"?>
<svg width="181px" height="45px" viewBox="0 0 181 45" version="1.1" xmlns="http://www.w3.org/2000/svg" xmlns:xlink="http://www.w3.org/1999/xlink" xmlns:sketch="http://www.bohemiancoding.com/sketch/ns">
    <!-- Generator: Sketch 3.2.2 (9983) - http://www.bohemiancoding.com/sketch -->
    <title>header-icons</title>
    <desc>Created with Sketch.</desc>
    <defs></defs>
    <g id="Page-1" stroke="none" stroke-width="1" fill="none" fill-rule="evenodd" sketch:type="MSPage">
        <g id="header-icons" sketch:type="MSArtboardGroup">
            <g sketch:type="MSLayerGroup" transform="translate(2.000000, 0.000000)" id="Page-1">
                <g sketch:type="MSShapeGroup">
                    <g id="header-icons">
                        <g id="search-lrg" transform="translate(0.000000, 1.000000)">
                            <path d="M8,2 C11.3083077,2 14,4.69169231 14,8 C14,11.3083077 11.3083077,14 8,14 C4.69169231,14 2,11.3083077 2,8 C2,4.69169231 4.69169231,2 8,2 M8,0 C3.58211765,0 0,3.58211765 0,8 C0,12.4178824 3.58211765,16 8,16 C12.4178824,16 16,12.4178824 16,8 C16,3.58211765 12.4178824,0 8,0" id="Fill-5" fill="#2B2B2B"></path>
                            <path d="M12,13 L19,20" id="Stroke-6" stroke="#2B2B2B" stroke-width="2"></path>
                        </g>
                        <g id="my-account" transform="translate(31.000000, 1.000000)">
                            <path d="M9.005,2 C11.213,2 13.009,3.796 13.009,6.005 C13.009,8.213 11.213,10.009 9.005,10.009 C6.796,10.009 5,8.213 5,6.005 C5,3.796 6.796,2 9.005,2 M9.005,0 C5.689,0 3,2.689 3,6.005 C3,9.32 5.689,12.009 9.005,12.009 C12.321,12.009 15.009,9.32 15.009,6.005 C15.009,2.689 12.321,0 9.005,0" id="Fill-7" fill="#2B2B2B"></path>
                            <path d="M15,12 C13,14 11,15 9,15 C7,15 5,14 3,12 C3,12 0,12 0,20 L18,20 C18,12 15,12 15,12 L15,12 L15,12 Z" id="Stroke-8" stroke="#2B2B2B" stroke-width="2"></path>
                        </g>
                        <g id="wishlist" transform="translate(62.000000, 2.000000)">
                            <g id="alert" transform="translate(0.000000, 23.000000)">
                                <rect id="Rectangle-2" fill="#9F0000" x="10" y="13" width="2" height="2"></rect>
                                <rect id="Rectangle-3" fill="#9F0000" x="10" y="7" width="2" height="5"></rect>
                                <path d="M4,16 L0,16 L0,0 L16,0 L16,4" id="Stroke-9" stroke="#9F0000" stroke-width="2"></path>
                                <path d="M3,3 L19,3 L19,19 L3,19 L3,3 L3,3 Z" id="Path" stroke="#9F0000" stroke-width="2"></path>
                            </g>
                            <g id="default">
                                <path d="M4,16 L0,16 L0,0 L16,0 L16,4" id="Stroke-9" stroke="#2B2B2B" stroke-width="2"></path>
                                <path d="M3,3 L19,3 L19,19 L3,19 L3,3 L3,3 Z" id="Path" stroke="#2B2B2B" stroke-width="2"></path>
                                <path d="M12.2324204,9.74945605 L16.3582289,9.70158834 L12.9941593,12.2804613 L14.3114021,16.5 L10.9994456,13.8445387 L7.68859791,16.5 L9.00584073,12.2804613 L5.64177111,9.70158834 L9.76757963,9.74945605 L10.9994456,5.5 L12.2324204,9.74945605 L12.2324204,9.74945605 Z" id="Fill-10" fill="#2B2B2B"></path>
                            </g>
                        </g>
                        <g id="shopping-bag" transform="translate(93.000000, 0.000000)" fill="#2B2B2B">
                            <path d="M2,7 L20,7 L20,20 L2,20 L2,7 L2,7 Z M0,22 L22,22 L22,5 L0,5 L0,22 L0,22 Z" id="Fill-3"></path>
                            <path d="M11,2 C12.102,2 13,2.897 13,4 L13,5 L9,5 L9,4 C9,2.897 9.898,2 11,2 M11,0 C8.791,0 7,1.791 7,4 L7,7 L15,7 L15,4 C15,1.791 13.209,0 11,0" id="Fill-4"></path>
                        </g>
                        <g id="search" transform="translate(127.000000, 2.000000)" fill="#2B2B2B">
                            <path d="M18.997677,16.5301383 L13.930623,11.5000728 C14.671577,10.3408422 15.101284,8.967216 15.101284,7.4956383 C15.10133,3.3625388 11.714127,0 7.550619,0 C3.387203,0 2.84217094e-14,3.3625388 2.84217094e-14,7.4956383 C2.84217094e-14,11.6287379 3.387203,14.9912767 7.550619,14.9912767 C8.959406,14.9912767 10.279046,14.6059272 11.408919,13.9363155 L16.509699,19 L18.997677,16.5301383 L18.997677,16.5301383 Z M2.814787,7.4956383 C2.814787,4.9032913 4.939257,2.7942451 7.550619,2.7942451 C10.16198,2.7942451 12.286543,4.9032913 12.286543,7.4956383 C12.286543,10.0879854 10.162027,12.1969854 7.550619,12.1969854 C4.939257,12.1969854 2.814787,10.0879854 2.814787,7.4956383 L2.814787,7.4956383 L2.814787,7.4956383 Z" id="magnifier-icon-4"></path>
                        </g>
                        <g id="menu-icon" transform="translate(158.000000, 3.000000)" fill="#2B2B2B">
                            <g id="close" transform="translate(0.000000, 23.000000)">
                                <path d="M20,3 L0,3 L0,0 L20,0 L20,3 L20,3 Z M9,6 L9,9 L20,9 L20,6 L9,6 L9,6 Z M9,15 L20,15 L20,12 L9,12 L9,15 L9,15 Z M4.94974747,15 L4.94974747,7 L0,11 L4.94974747,15 L4.94974747,15 Z" id="menu-icon"></path>
                            </g>
                            <g id="open">
                                <path d="M20,3 L0,3 L0,0 L20,0 L20,3 L20,3 Z M20,6 L0,6 L0,9 L20,9 L20,6 L20,6 Z M0,12 L0,15 L20,15 L20,12 L0,12 L0,12 Z" id="Shape"></path>
                            </g>
                        </g>
                        <g id="close" transform="translate(0.000000, 25.000000)" fill="#2B2B2B">
                            <path d="M0,1.86335714 L1.86335714,0 L19,17.1366429 L17.1366429,19 L0,1.86335714 Z" id="Fill-1"></path>
                            <path d="M1.86335714,19 L0,17.1366429 L17.1366429,0 L19,1.86335714 L1.86335714,19" id="Fill-2"></path>
                        </g>
                    </g>
                </g>
            </g>
            <g id="Imported-Layers" sketch:type="MSLayerGroup" transform="translate(52.000000, 41.000000)"></g>
        </g>
    </g>
</svg>