<?xml version="1.0" encoding="utf-8"?>
<!-- Generator: Adobe Illustrator 15.0.0, SVG Export Plug-In  -->
<!DOCTYPE svg PUBLIC "-//W3C//DTD SVG 1.1//EN" "http://www.w3.org/Graphics/SVG/1.1/DTD/svg11.dtd" [
	<!ENTITY ns_flows "http://ns.adobe.com/Flows/1.0/">
]>
<svg version="1.1"
	 xmlns="http://www.w3.org/2000/svg" xmlns:xlink="http://www.w3.org/1999/xlink" xmlns:a="http://ns.adobe.com/AdobeSVGViewerExtensions/3.0/"
	  preserveAspectRatio="none" 
	 x="0px" y="0px" width="27px" height="1160px" viewBox="-1.981 -35.008 27 1160"
	 overflow="visible" enable-background="new -1.981 -35.008 27 1160" xml:space="preserve">
<defs>
</defs>
<g>
	<linearGradient id="SVGID_1_" gradientUnits="userSpaceOnUse" x1="11" y1="771.0527" x2="11" y2="750.2087">
		<stop  offset="0" style="stop-color:#EDEDED"/>
		<stop  offset="1" style="stop-color:#FFFFFF"/>
	</linearGradient>
	<rect x="0.5" y="750.492" fill="url(#SVGID_1_)" width="21" height="21"/>
	<path fill="#C6C6C5" d="M21,750.992v20H1v-20H21 M22,749.992H0v22h22V749.992L22,749.992z"/>
</g>
<polygon fill="#2B2B2B" points="9,1091.992 5,1087.992 6,1086.992 8.732,1088.992 17,1079.992 18,1080.992 "/>
<path fill="#2B2B2B" d="M13.085,408.745l0.664,0.664l-4.697,4.697l-0.662-0.662L13.085,408.745 M13.085,405.877l-7.562,7.567
	l3.529,3.53l7.564-7.565L13.085,405.877L13.085,405.877z"/>
<g>
	
		<rect x="14.963" y="403.698" transform="matrix(-0.7069 0.7073 -0.7073 -0.7069 315.1189 681.8174)" fill="#2B2B2B" width="2.672" height="4.995"/>
</g>
<polygon fill="#2B2B2B" points="4.01,418.488 7.034,417.983 4.514,415.461 "/>
<path fill="#2B2B2B" d="M3.987,378.495v11.991h14.988v-11.991H3.987z M14.155,384.816l-0.699,0.698l2.812,2.812H6.694l2.812-2.812
	l-0.697-0.698l-2.812,2.812v-6.426l5.484,5.484l5.484-5.484v6.426L14.155,384.816z M6.694,380.505h9.574l-4.787,4.787L6.694,380.505
	z"/>
<path fill="#2B2B2B" d="M6.616,444.992h9.811l1.096-11h-12L6.616,444.992z M15.313,435.992l-0.697,7H8.427l-0.695-7H15.313z"/>
<rect x="11.022" y="436.992" fill="#2B2B2B" width="1" height="5"/>
<rect x="9.022" y="436.992" fill="#2B2B2B" width="1" height="5"/>
<rect x="13.022" y="436.992" fill="#2B2B2B" width="1" height="5"/>
<polygon fill="#2B2B2B" points="13.522,430.992 13.522,429.992 9.522,429.992 9.522,430.992 5.522,430.992 5.522,432.992 
	17.522,432.992 17.522,430.992 "/>
<circle fill="#FFFFFF" cx="11.5" cy="545.43" r="11.5"/>
<path fill="#C7C7C7" d="M11.5,533.931c-6.354,0-11.5,5.148-11.5,11.5c0,6.354,5.146,11.5,11.5,11.5c6.352,0,11.5-5.146,11.5-11.5
	C23,539.079,17.852,533.931,11.5,533.931z M11.5,555.931c-5.789,0-10.5-4.71-10.5-10.5c0-5.789,4.711-10.5,10.5-10.5
	s10.5,4.711,10.5,10.5C22,551.221,17.289,555.931,11.5,555.931z"/>
<polygon fill="#2B2B2B" points="12.5,544.931 9.5,544.931 9.5,545.931 10.5,545.931 10.5,549.931 9.5,549.931 9.5,550.931 
	13.5,550.931 13.5,549.931 12.5,549.931 "/>
<circle fill="#2B2B2B" cx="11.5" cy="541.931" r="1.328"/>
<circle fill="#FFFFFF" cx="11.5" cy="518.491" r="11.5"/>
<path fill="#C7C7C7" d="M11.5,506.936c-6.354,0-11.5,5.147-11.5,11.5s5.146,11.5,11.5,11.5c6.352,0,11.5-5.147,11.5-11.5
	S17.852,506.936,11.5,506.936z M11.5,528.936c-5.789,0-10.5-4.71-10.5-10.5s4.711-10.5,10.5-10.5s10.5,4.71,10.5,10.5
	S17.289,528.936,11.5,528.936z"/>
<polygon fill="#838383" points="12.5,517.936 9.5,517.936 9.5,518.936 10.5,518.936 10.5,522.936 9.5,522.936 9.5,523.936 
	13.5,523.936 13.5,522.936 12.5,522.936 "/>
<circle fill="#838383" cx="11.5" cy="514.936" r="1.328"/>
<polygon fill="#2B2B2B" points="19,161.506 17.502,160.007 11.508,166.001 5.514,160.007 4.016,161.506 10.01,167.5 4.016,173.494 
	5.514,174.992 11.508,168.998 17.502,174.992 19,173.494 13.006,167.5 "/>
<polygon fill="#2B2B2B" points="16,275.5 8.508,268.007 7.01,269.505 13.004,275.5 7.01,281.493 8.508,282.992 "/>
<polygon fill="#2B2B2B" points="7,302.5 14.492,295.007 15.99,296.505 9.996,302.5 15.99,308.493 14.492,309.992 "/>
<polygon fill="#2B2B2B" points="11.493,334.497 4,327.005 5.499,325.507 11.493,331.501 17.486,325.506 18.985,327.004 "/>
<polygon fill="#2B2B2B" points="11.507,946.002 19,953.494 17.501,954.992 11.507,948.998 5.514,954.992 4.015,953.494 "/>
<polygon fill="#2B2B2B" points="16,245.359 14.649,244.009 11.5,247.159 8.351,244.009 7,245.359 10.149,248.509 7,251.659 
	8.351,253.009 11.5,249.859 14.649,253.009 16,251.659 12.851,248.509 "/>
<polygon fill="#2B2B2B" points="13,459.992 11,459.993 11,462.993 8,462.993 8,464.993 11,464.993 11,467.993 13,467.993 
	13,464.992 16,464.992 16,462.992 13,462.992 "/>
<polygon fill="#2B2B2B" points="12,756.992 10,756.993 10,759.993 7,759.993 7,761.993 10,761.993 10,764.993 12,764.993 
	12,761.992 15,761.992 15,759.992 12,759.992 "/>
<g>
	<linearGradient id="SVGID_2_" gradientUnits="userSpaceOnUse" x1="11" y1="798.0527" x2="11" y2="777.2087">
		<stop  offset="0" style="stop-color:#EDEDED"/>
		<stop  offset="1" style="stop-color:#FFFFFF"/>
	</linearGradient>
	<rect x="0.5" y="777.492" fill="url(#SVGID_2_)" width="21" height="21"/>
	<path fill="#C6C6C5" d="M21,777.992v20H1v-20H21 M22,776.992H0v22h22V776.992L22,776.992z"/>
</g>
<g>
	<path fill="#C6C6C5" d="M16,810.992v9H7v-9H16 M17,809.992H6v11h11V809.992L17,809.992z"/>
</g>
<g>
	<path fill="#C6C6C5" d="M16,837.992v9H7v-9H16 M17,836.992H6v11h11V836.992L17,836.992z"/>
</g>
<g>
	<rect x="8" y="838.992" fill="#838383" width="7" height="7"/>
</g>
<g>
	<rect x="10" y="868.992" fill="#838383" width="3" height="1"/>
</g>
<rect x="7" y="786.993" fill="#2B2B2B" width="8" height="2"/>
<polygon fill="#FFFFFF" points="13,486.992 11,486.993 11,489.993 8,489.993 8,491.993 11,491.993 11,494.993 13,494.993 
	13,491.992 16,491.992 16,489.992 13,489.992 "/>
<polygon fill="#2B2B2B" points="11.502,1006.992 16.001,1002.494 14.652,1001.143 11.502,1004.293 8.352,1001.143 7.001,1002.492 
	"/>
<polygon fill="#2B2B2B" points="11.499,56.604 7,61.104 8.35,62.454 11.499,59.305 14.649,62.454 16,61.104 "/>
<polygon fill="#2B2B2B" points="11.536,115.989 15.532,111.993 7.54,111.993 "/>
<polygon fill="#2B2B2B" points="14.026,3.996 10.03,0 10.03,7.992 "/>
<polygon fill="#2B2B2B" points="11.49,192.501 7.494,196.498 15.486,196.498 "/>
<polygon fill="#2B2B2B" points="9,221.509 12.996,217.513 12.996,225.505 "/>
<circle fill="#FFFFFF" cx="11.5" cy="653.435" r="11.5"/>
<path fill="#C7C7C7" d="M11.5,642.936c5.79,0,10.5,4.71,10.5,10.499c0,5.791-4.71,10.501-10.5,10.501
	c-5.789,0-10.5-4.71-10.5-10.501C1,647.646,5.711,642.936,11.5,642.936 M11.5,641.936c-6.352,0-11.5,5.149-11.5,11.499
	c0,6.353,5.148,11.501,11.5,11.501S23,659.787,23,653.435C23,647.085,17.852,641.936,11.5,641.936L11.5,641.936z"/>
<rect x="8.559" y="649.403" fill="#2B2B2B" width="2.199" height="8.063"/>
<rect x="12.259" y="649.403" fill="#2B2B2B" width="2.2" height="8.063"/>
<circle fill="#FFFFFF" cx="11.5" cy="626.435" r="11.5"/>
<path fill="#C7C7C7" d="M11.5,615.936c5.79,0,10.5,4.71,10.5,10.499c0,5.791-4.71,10.501-10.5,10.501
	c-5.789,0-10.5-4.71-10.5-10.501C1,620.646,5.711,615.936,11.5,615.936 M11.5,614.936c-6.352,0-11.5,5.149-11.5,11.499
	c0,6.353,5.148,11.501,11.5,11.501S23,632.787,23,626.435C23,620.085,17.852,614.936,11.5,614.936L11.5,614.936z"/>
<rect x="8.55" y="622.403" fill="#838383" width="2.199" height="8.063"/>
<rect x="12.25" y="622.403" fill="#838383" width="2.2" height="8.063"/>
<circle fill="#FFFFFF" cx="11.5" cy="599.357" r="11.5"/>
<path fill="#C7C7C7" d="M11.5,588.858c5.789,0,10.5,4.71,10.5,10.499c0,5.791-4.711,10.501-10.5,10.501
	c-5.79,0-10.5-4.71-10.5-10.501C1,593.568,5.71,588.858,11.5,588.858 M11.5,587.858c-6.352,0-11.5,5.149-11.5,11.499
	c0,6.353,5.148,11.501,11.5,11.501S23,605.71,23,599.357C23,593.008,17.852,587.858,11.5,587.858L11.5,587.858z"/>
<path fill="#2B2B2B" d="M17.08,599.356l-8.158,4.824v-9.646L17.08,599.356z"/>
<circle fill="#FFFFFF" cx="11.5" cy="572.435" r="11.5"/>
<path fill="#C7C7C7" d="M11.5,561.936c5.789,0,10.5,4.71,10.5,10.499c0,5.791-4.711,10.501-10.5,10.501
	c-5.79,0-10.5-4.71-10.5-10.501C1,566.646,5.71,561.936,11.5,561.936 M11.5,560.936c-6.352,0-11.5,5.149-11.5,11.499
	c0,6.353,5.148,11.501,11.5,11.501S23,578.787,23,572.435C23,566.085,17.852,560.936,11.5,560.936L11.5,560.936z"/>
<path fill="#838383" d="M17.08,572.434l-8.158,4.824v-9.646L17.08,572.434z"/>
<path fill="#2B2B2B" d="M6.021,680.455c0-1.919,1.562-3.479,3.48-3.479c1.918,0,3.479,1.561,3.479,3.479s-1.561,3.479-3.479,3.479
	C7.582,683.935,6.021,682.374,6.021,680.455 M4.012,680.455c0,3.031,2.457,5.488,5.489,5.488c3.031,0,5.488-2.457,5.488-5.488
	s-2.457-5.489-5.488-5.489C6.469,674.966,4.012,677.424,4.012,680.455L4.012,680.455z"/>
<polygon fill="#2B2B2B" points="14.503,684.44 15.502,684.939 19,688.438 17.5,689.936 14.003,686.438 13.504,685.439 "/>
<path fill="#2B2B2B" d="M11.505,701.936c-4.139,0-7.494,2.461-7.494,5.496c0,3.034,3.355,5.495,7.494,5.495l4.997,1.999l0.008-3.498
	C18,710.43,19,709.056,19,707.432C19,704.396,15.645,701.936,11.505,701.936z M14.503,710.43v1.75l-3.109-1.252
	c-2.983-0.037-5.384-1.589-5.384-3.496c0-1.932,2.46-3.498,5.495-3.498c3.036,0,5.496,1.566,5.496,3.498
	C17.001,708.66,16.009,709.805,14.503,710.43z"/>
<path fill="#2B2B2B" d="M7.045,732.601c-0.016,0-0.029,0.001-0.045,0.001v1.84c0.016,0,0.029,0,0.045,0
	c1.455,0,2.824,0.568,3.854,1.596c1.029,1.029,1.596,2.398,1.596,3.854c0,0.016,0,0.029,0,0.045h1.841
	c0-0.016,0.001-0.029,0.001-0.045C14.336,735.865,11.071,732.601,7.045,732.601z"/>
<path fill="#2B2B2B" d="M7,736.273v1.842c0.994,0.02,1.801,0.825,1.82,1.82h1.842C10.641,737.922,9.014,736.294,7,736.273z"/>
<path fill="#2B2B2B" d="M7,730.789c0.003,0,0.004,0,0.007,0c1.235,0,2.431,0.241,3.558,0.717c1.088,0.461,2.065,1.12,2.905,1.961
	c0.841,0.84,1.5,1.816,1.96,2.905c0.476,1.126,0.717,2.321,0.717,3.557c0,0,0,0.004,0,0.007h1.842c0-0.003,0-0.005,0-0.005
	c0-5.948-4.726-10.788-10.625-10.977H7V730.789z"/>
<g>
	<path fill="#ADADAD" d="M11,916.991c1.103,0,2,0.897,2,2l0,3H9v-3C9,917.889,9.896,916.991,11,916.991 M11,915.991
		c-1.657,0-3,1.343-3,3v4h6l0-4C14,917.334,12.656,915.991,11,915.991L11,915.991z"/>
</g>
<g>
	<linearGradient id="SVGID_3_" gradientUnits="userSpaceOnUse" x1="11.9956" y1="932.8203" x2="11.9956" y2="920.3827">
		<stop  offset="0" style="stop-color:#EDEDED"/>
		<stop  offset="1" style="stop-color:#FFFFFF"/>
	</linearGradient>
	<polygon fill="url(#SVGID_3_)" points="3.51,931.794 4.069,920.46 18.384,919.499 20,920.307 20.481,931.552 5.181,933.465 	"/>
	<path fill="#C6C6C5" d="M18.282,920.007l1.23,0.615l0.449,10.491l-14.6,1.825l-1.341-1.341l0.526-10.668L18.282,920.007
		 M18.486,918.991l-14.895,1l-0.592,12l2,2l16-2l-0.514-12L18.486,918.991L18.486,918.991z"/>
</g>
<g>
	<path fill="#ADADAD" d="M13,917.991c1.103,0,2,0.897,2,2l0,3h-4v-3C11,918.889,11.897,917.991,13,917.991 M13,916.991
		c-1.657,0-3,1.343-3,3v4h6l0-4C16,918.334,14.657,916.991,13,916.991L13,916.991z"/>
</g>
<linearGradient id="SVGID_4_" gradientUnits="userSpaceOnUse" x1="5.4097" y1="926.8359" x2="20" y2="926.8359">
	<stop  offset="0" style="stop-color:#D1D1D1"/>
	<stop  offset="1" style="stop-color:#FFFFFF"/>
</linearGradient>
<polygon fill="url(#SVGID_4_)" points="20,930.991 5.41,932.991 5.41,921.682 19.486,920.682 "/>
<circle fill="#2B2B2B" cx="11.488" cy="1031.519" r="3"/>
<circle fill="#2B2B2B" cx="11.5" cy="1058.492" r="4.5"/>
</svg>
