<?xml version="1.0" encoding="UTF-8" standalone="no"?>
<svg width="3294px" height="248px" viewBox="0 0 3294 248" version="1.1" xmlns="http://www.w3.org/2000/svg" xmlns:xlink="http://www.w3.org/1999/xlink">
    <!-- Generator: Sketch 39 (31667) - http://www.bohemiancoding.com/sketch -->
    <title>01.NAP_LOGO_White_and_Black</title>
    <desc>Created with Sketch.</desc>
    <defs></defs>
    <g id="Page-1" stroke="none" stroke-width="1" fill="none" fill-rule="evenodd">
        <g id="01.NAP_LOGO_White_and_Black" fill="#1D1D1B">
            <g id="N" transform="translate(0.000000, 5.000000)">
                <path d="M209.29,238.05 L209.29,0.04 L175.62,0.04 L175.62,181.9 L33.96,2.08 L33.96,2.08 C33.5282082,1.56380364 33.0064445,1.13012991 32.42,0.8 C31.7315856,0.375834723 30.9475233,0.131674969 30.14,0.09 L30.08,0.09 L0,0.09 L0,238.09 L32.72,238.09 L32.72,56.84 L174.42,235.73 L174.42,235.73 C174.938165,236.341912 175.569756,236.847864 176.28,237.22 C177.041014,237.670083 177.897633,237.933922 178.78,237.99 L178.84,237.99 L209.29,238.05 Z" id="Shape"></path>
            </g>
            <g id="E" transform="translate(301.000000, 5.000000)">
                <polygon id="Shape" points="0.74 238.03 0.74 0.02 156.16 0.02 156.16 33.29 33.67 33.29 33.67 101.89 143.79 101.89 143.79 131.2 33.67 131.2 33.67 205.21 165.37 205.21 165.37 238.03"></polygon>
            </g>
            <g id="T" transform="translate(553.000000, 5.000000)">
                <polygon id="Shape" points="127.67 33.27 127.67 238.1 94.68 238.1 94.68 33.27 0.54 33.27 0.54 0.02 221.81 0.02 221.81 33.27"></polygon>
            </g>
            <g id="_-" transform="translate(841.000000, 121.000000)">
                <rect id="Rectangle-path" x="0.27" y="0.31" width="120.03" height="29.14"></rect>
            </g>
            <g id="A" transform="translate(1049.000000, 4.000000)">
                <path d="M125.88,44.05 L85.88,132.26 L165.94,132.26 L125.88,44.05 Z M213.3,239.63 L179.16,162.1 L72.28,162.1 L36.86,239.63 L0.86,239.63 L109.16,1.54 L125.87,0.54 L142.58,1.54 L249.33,239.62 L213.3,239.63 Z" id="Shape"></path>
            </g>
            <g id="_--2" transform="translate(1386.000000, 121.000000)">
                <rect id="Rectangle-path" x="0.69" y="0.31" width="120.03" height="29.14"></rect>
            </g>
            <g id="P" transform="translate(1637.000000, 5.000000)">
                <path d="M130.47,33.07 L29.3,33.07 L29.3,101.82 L130.47,101.82 C149.85,101.89 168.11,90.97 168.11,68 C168.11,44.39 150.34,34.82 130.47,33.07 M130.47,136.91 L29.64,136.91 L29.64,238.05 L0.48,238.05 L0.48,0.04 L130.48,0.04 C172.6,0.04 197.22,25.24 197.22,68.04 C197.22,110.16 172.27,136.95 130.48,136.95" id="Shape"></path>
            </g>
            <g id="O" transform="translate(1897.000000, 0.000000)">
                <path d="M129.92,214.09 C183.92,214.09 226.47,176.44 226.47,123.85 C226.47,70.85 183.94,33.16 129.92,33.16 C76.3,33.16 33.37,70.59 33.37,123.55 C33.37,176.14 76.3,214.09 129.92,214.09 M129.78,7.99360578e-15 C209.2,7.99360578e-15 259.31,56.48 259.31,123.55 C259.31,188.55 210.61,247.07 129.09,247.07 C50.37,247.07 0.59,188.86 0.59,123.55 C0.59,56.83 51.78,7.99360578e-15 129.79,7.99360578e-15" id="Shape"></path>
            </g>
            <g id="R" transform="translate(2239.000000, 5.000000)">
                <path d="M129.32,33.14 L29.43,33.14 L29.43,104.05 L129.32,104.05 C149.32,101.97 167.03,92.32 167.03,67.12 C167.03,47.98 151.97,34.57 129.32,33.12 M148.32,136.4 L211.01,238.1 L171.72,238.1 L110.32,136.96 L29.38,136.96 L29.38,238.12 L0.72,238.12 L0.72,0.12 L129.32,0.12 C172.71,0.12 197.41,28.29 197.41,69.04 C197.41,105.09 184.41,125.26 148.32,136.43" id="Shape"></path>
            </g>
            <g id="T-2" transform="translate(2513.000000, 5.000000)">
                <polygon id="Shape" points="127.91 35.12 127.91 238.35 94.09 238.35 94.09 35.12 0.94 35.12 0.94 0.35 222.21 0.35 222.21 35.12"></polygon>
            </g>
            <g id="E-2" transform="translate(2825.000000, 5.000000)">
                <polygon id="Shape" points="0.68 238.05 0.68 0.04 156.1 0.04 156.1 33.31 33.61 33.31 33.61 101.91 143.73 101.91 143.73 131.23 33.61 131.23 33.61 205.23 165.31 205.23 165.31 238.05"></polygon>
            </g>
            <g id="R-2" transform="translate(3083.000000, 5.000000)">
                <path d="M128.72,33.14 L28.83,33.14 L28.83,104.05 L128.72,104.05 C148.72,101.97 166.43,92.32 166.43,67.12 C166.43,47.98 151.37,34.57 128.72,33.12 M147.72,136.4 L210.41,238.1 L171.17,238.1 L109.77,136.96 L28.83,136.96 L28.83,238.12 L0.08,238.12 L0.08,0.12 L128.72,0.12 C172.11,0.12 196.81,28.29 196.81,69.04 C196.81,105.09 183.81,125.26 147.72,136.43" id="Shape"></path>
            </g>
        </g>
    </g>
</svg>