<?xml version="1.0" encoding="UTF-8" standalone="no"?>
<!-- Generator: Adobe Illustrator 15.0.0, SVG Export Plug-In . SVG Version: 6.00 Build 0)  -->
<!DOCTYPE svg  PUBLIC '-//W3C//DTD SVG 1.1//EN'  'http://www.w3.org/Graphics/SVG/1.1/DTD/svg11.dtd'>
<svg id="Layer_1" xmlns="http://www.w3.org/2000/svg" xml:space="preserve" height="31.25px" viewBox="0 0 310 31.25" width="310px" version="1.1" y="0px" x="0px" xmlns:xlink="http://www.w3.org/1999/xlink" enable-background="new 0 0 310 31.25">
<g fill="#141414">
	<path d="m161.51 27.178c-2.891 2.727-6.489 3.98-11.343 3.98-4.852 0-8.453-1.254-11.399-3.98-3.053-2.835-4.905-7.087-4.905-11.505 0-4.526 1.853-8.834 4.905-11.615 3.054-2.781 6.545-3.982 11.617-3.982 4.635 0 8.287 1.31 11.124 3.982 3.106 2.836 4.906 7.089 4.906 11.56 0 4.469-1.79 8.725-4.9 11.56zm-11.51-22.575c-6.38 0-10.796 4.473-10.796 11.015 0 6.597 4.417 11.015 10.959 11.015 6.543 0 10.96-4.418 10.96-10.959 0.01-6.709-4.41-11.071-11.12-11.071z"/>
	<polygon points="33.483 0.703 26.503 0.703 16.851 17.717 6.544 0.703 0 0.703 0 30.53 4.527 30.53 4.527 6.754 16.578 27.096 28.357 6.754 28.357 30.53 33.483 30.53"/>
	<path d="m63.86 17.199c4.417-0.873 6.598-3.436 6.598-7.852 0-3.326-1.362-6.163-3.599-7.362-1.909-1.036-3.871-1.308-9.434-1.308h-13.414v29.827h5.126v-12.761h9.161l7.742 12.761h5.773l-7.953-13.305zm-4.307-3.818h-10.417v-8.342h10.417c2.672 0 3.762 0.165 4.799 0.818 1.035 0.6 1.579 1.909 1.579 3.327 0 1.472-0.599 2.725-1.579 3.326-1.037 0.653-2.238 0.871-4.799 0.871z"/>
	<path d="m122.61 2.148c-1.745-1.09-3.763-1.472-7.854-1.472h-14.62v29.828h5.126v-12.705h9.488c4.199 0 5.944-0.327 7.798-1.526 2.237-1.42 3.49-3.926 3.49-7.035-0.01-3.054-1.32-5.726-3.44-7.09zm-7.69 11.29h-9.652v-8.4h9.652c2.836 0 4.091 0.219 5.126 0.874 0.928 0.6 1.417 1.799 1.417 3.326-0.01 3.162-1.59 4.2-6.55 4.2z"/>
	<path d="m195.44 17.199c4.418-0.873 6.598-3.436 6.598-7.852 0-3.326-1.363-6.163-3.599-7.362-1.907-1.036-3.871-1.308-9.433-1.308h-13.414v29.827h5.125v-12.761h9.16l7.742 12.761h5.773l-7.95-13.305zm-4.31-3.818h-10.416v-8.342h10.416c2.672 0 3.762 0.165 4.798 0.818 1.036 0.6 1.582 1.909 1.582 3.327 0 1.472-0.601 2.725-1.582 3.326-1.03 0.653-2.23 0.871-4.8 0.871z"/>
	<polygon points="209.87 0.677 209.87 5.039 221.21 5.039 221.21 30.504 226.34 30.504 226.34 5.039 237.68 5.039 237.68 0.677"/>
	<polygon points="251.98 26.142 251.98 17.47 265.07 17.47 265.07 13.108 251.98 13.108 251.98 5.039 270.9 5.039 270.9 0.677 246.86 0.677 246.86 30.504 272.1 30.504 272.1 26.142"/>
	<path d="m301.13 17.199c4.415-0.873 6.598-3.436 6.598-7.852 0-3.326-1.365-6.163-3.6-7.362-1.908-1.036-3.872-1.308-9.434-1.308h-13.413v29.827h5.126v-12.761h9.161l7.74 12.761h5.772l-7.96-13.305zm-4.31-3.818h-10.414v-8.342h10.414c2.674 0 3.762 0.165 4.8 0.818 1.036 0.6 1.579 1.909 1.579 3.327 0 1.472-0.599 2.725-1.579 3.326-1.03 0.653-2.23 0.871-4.8 0.871z"/>
</g>
</svg>
