<?xml version="1.0" encoding="UTF-8" standalone="no"?>
<!-- Generator: Adobe Illustrator 15.0.0, SVG Export Plug-In  -->
<!DOCTYPE svg  PUBLIC '-//W3C//DTD SVG 1.1//EN'  'http://www.w3.org/Graphics/SVG/1.1/DTD/svg11.dtd' [
	<!ENTITY ns_flows "http://ns.adobe.com/Flows/1.0/">
]>
<svg xmlns="http://www.w3.org/2000/svg" xml:space="preserve" height="54px" width="270px" version="1.1" y="0px" x="0px" overflow="visible" xmlns:xlink="http://www.w3.org/1999/xlink" viewBox="-5.004 -5 270 54" enable-background="new -5.004 -5 270 54">
<path d="m242.92 1.97v11.991h14.987v-11.991h-14.99zm10.17 6.321l-0.698 0.698 2.812 2.812h-9.573l2.812-2.812-0.697-0.698-2.812 2.812v-6.426l5.484 5.484 5.484-5.484v6.426l-2.8-2.812zm-7.46-4.311h9.573l-4.786 4.787-4.78-4.787z" fill="#2B2B2B"/>
<path d="m242.92 29.029v11.99h14.987v-11.99h-14.99zm10.17 6.32l-0.698 0.699 2.812 2.811h-9.573l2.812-2.811-0.697-0.699-2.812 2.812v-6.426l5.484 5.484 5.484-5.484v6.426l-2.8-2.812zm-7.46-4.31h9.573l-4.786 4.787-4.78-4.787z" fill="#838383"/>
<path d="m121.92 2.759c-0.552 0.244-1.145 0.41-1.768 0.484 0.635-0.381 1.123-0.984 1.353-1.703-0.595 0.353-1.253 0.609-1.954 0.747-0.562-0.598-1.361-0.972-2.246-0.972-1.7 0-3.078 1.378-3.078 3.077 0 0.241 0.027 0.476 0.08 0.701-2.557-0.128-4.825-1.354-6.342-3.215-0.265 0.455-0.417 0.983-0.417 1.547 0 1.067 0.543 2.01 1.37 2.562-0.505-0.016-0.979-0.154-1.394-0.385v0.039c0 1.491 1.061 2.734 2.468 3.018-0.258 0.07-0.53 0.107-0.811 0.107-0.199 0-0.392-0.019-0.58-0.055 0.392 1.223 1.528 2.113 2.875 2.137-1.053 0.826-2.38 1.317-3.822 1.317-0.249 0-0.493-0.014-0.734-0.043 1.362 0.873 2.979 1.383 4.717 1.383 5.661 0 8.756-4.689 8.756-8.756 0-0.133-0.003-0.266-0.009-0.398 0.59-0.433 1.11-0.975 1.52-1.592" fill="#2B2B2B"/>
<path d="m143.73 0.03v3.792h3.559v2.355h-3.559v3.846c0 0.87 0.045 1.428 0.138 1.675 0.092 0.247 0.263 0.444 0.514 0.591 0.332 0.199 0.711 0.298 1.14 0.298 0.758 0 1.514-0.247 2.266-0.741v2.366c-0.641 0.301-1.223 0.514-1.741 0.635-0.521 0.122-1.082 0.183-1.687 0.183-0.686 0-1.291-0.087-1.818-0.26s-0.977-0.421-1.35-0.74c-0.371-0.321-0.629-0.662-0.772-1.023s-0.216-0.884-0.216-1.57v-5.261h-1.658v-2.123c0.589-0.192 1.094-0.466 1.514-0.824 0.42-0.357 0.758-0.787 1.012-1.288 0.255-0.501 0.43-1.138 0.524-1.912l2.15 0.001" fill="#2B2B2B"/>
<path d="m161.94 4.478l0.705 0.957s1.008-0.629 1.133-0.705c0.127-0.076 0.907 0.252 1.512 2.418s0.906 3.45 1.209 4.559c0.302 1.109 0.939 2.318 2.242 2.318 1.621 0 2.693-1.034 4.004-2.645 1.31-1.613 4.193-5.051 4.193-7.682 0-2.212-1.398-2.633-2.633-2.633s-3.072 0.97-3.803 3.439c1.587-0.429 2.141 0.133 2.141 0.931 0 1.035-1.728 3.904-2.281 3.904-0.721 0-1.09-1.267-1.194-1.794-0.216-1.091-0.487-2.731-0.739-4.067-0.252-1.335-0.797-2.413-1.854-2.413-0.53 0-1.141 0.348-2.291 1.389-0.82 0.745-2.34 2.024-2.34 2.024z" fill="#2B2B2B"/>
<path d="m203.09 12.196c0.603-0.602 0.827-2.141 0.827-4.641s-0.154-4.047-0.889-4.719c-0.69-0.629-1.56-0.836-6.59-0.836-5.033 0-6.064 0.32-6.629 0.836-0.734 0.672-0.889 2.219-0.889 4.719s0.225 4.039 0.827 4.641 1.653 0.828 6.672 0.828 6.07-0.227 6.67-0.828zm-8.5-2.446v-4.542l4.929 2.288-4.93 2.254z" fill="#2B2B2B"/>
<path d="m86.801 15.024v-7.039h-1.86v-2.534h1.861v-2.165c-0.001-1.7 1.098-3.262 3.632-3.262 1.026 0 1.784 0.098 1.784 0.098l-0.06 2.367s-0.774-0.008-1.618-0.008c-0.913 0-1.059 0.421-1.059 1.12v1.85h2.75v2.534h-2.75v7.039h-2.68" fill="#2B2B2B"/>
<path d="m61.422 0.024c-4.143 0-7.501 3.358-7.501 7.5 0 3.071 1.847 5.709 4.489 6.869-0.021-0.523-0.004-1.152 0.131-1.722 0.145-0.609 0.965-4.086 0.965-4.086s-0.24-0.479-0.24-1.187c0-1.111 0.645-1.941 1.446-1.941 0.683 0 1.012 0.512 1.012 1.126 0 0.686-0.438 1.711-0.663 2.661-0.188 0.796 0.399 1.444 1.184 1.444 1.421 0 2.378-1.825 2.378-3.987 0-1.644-1.107-2.875-3.122-2.875-2.274 0-3.692 1.697-3.692 3.592 0 0.654 0.193 1.114 0.494 1.471 0.139 0.164 0.158 0.23 0.108 0.418-0.036 0.138-0.119 0.47-0.153 0.602-0.05 0.19-0.204 0.258-0.375 0.188-1.048-0.428-1.536-1.576-1.536-2.866 0-2.13 1.797-4.685 5.361-4.685 2.863 0 4.748 2.072 4.748 4.297 0 2.942-1.635 5.14-4.046 5.14-0.81 0-1.571-0.438-1.833-0.935 0 0-0.435 1.728-0.527 2.062-0.159 0.578-0.471 1.156-0.755 1.606 0.675 0.2 1.388 0.308 2.127 0.308 4.141 0 7.499-3.358 7.499-7.5s-3.358-7.5-7.499-7.5" fill="#2B2B2B"/>
<path d="m11.21 7.303c-0.21-0.063-0.354-0.106-0.244-0.382 0.238-0.6 0.263-1.117 0.004-1.485-0.484-0.692-1.81-0.655-3.329-0.019 0 0-0.477 0.209-0.355-0.169 0.233-0.751 0.198-1.38-0.165-1.744-0.824-0.825-3.016 0.031-4.896 1.91-1.407 1.408-2.225 2.9-2.225 4.19 0 2.467 3.164 3.967 6.26 3.967 4.058 0 6.757-2.357 6.757-4.229 0.002-1.131-0.951-1.773-1.807-2.039zm-4.94 5.384c-2.47 0.244-4.602-0.873-4.763-2.495-0.16-1.622 1.713-3.133 4.183-3.378 2.471-0.244 4.603 0.873 4.763 2.494 0.159 1.622-1.713 3.134-4.183 3.379z" fill="#2B2B2B"/>
<path d="m13.905 2.788c-0.98-1.086-2.426-1.5-3.76-1.217-0.309 0.066-0.505 0.37-0.439 0.678 0.066 0.309 0.37 0.506 0.678 0.44 0.949-0.202 1.977 0.093 2.673 0.865s0.885 1.825 0.587 2.747c-0.097 0.301 0.067 0.622 0.368 0.719 0.3 0.097 0.623-0.067 0.72-0.367v-0.002c0.418-1.298 0.153-2.778-0.827-3.863" fill="#2B2B2B"/>
<path d="m12.4 4.146c-0.477-0.529-1.182-0.73-1.832-0.592-0.266 0.056-0.435 0.318-0.378 0.584 0.057 0.265 0.318 0.435 0.583 0.377v0.001c0.318-0.067 0.663 0.03 0.896 0.289s0.296 0.611 0.196 0.92c-0.083 0.258 0.058 0.536 0.316 0.62 0.259 0.083 0.536-0.059 0.619-0.317 0.205-0.632 0.078-1.353-0.4-1.882" fill="#2B2B2B"/>
<path d="m6.516 8.062c-1.175-0.306-2.504 0.28-3.015 1.316-0.52 1.056-0.017 2.229 1.171 2.612 1.23 0.396 2.68-0.211 3.184-1.352 0.498-1.114-0.123-2.261-1.34-2.576zm-0.897 2.698c-0.239 0.381-0.75 0.548-1.136 0.372-0.38-0.173-0.492-0.616-0.253-0.987 0.236-0.37 0.73-0.535 1.113-0.375 0.387 0.165 0.51 0.605 0.276 0.99zm0.787-1.01c-0.086 0.147-0.277 0.219-0.427 0.157-0.147-0.061-0.193-0.226-0.11-0.371 0.086-0.145 0.27-0.215 0.417-0.156 0.149 0.054 0.202 0.221 0.12 0.37z" fill="#2B2B2B"/>
<path id="g_4_" d="m33.463 8.709c-0.354-0.251-1.034-0.862-1.034-1.222 0-0.421 0.121-0.629 0.754-1.124 0.65-0.508 1.109-1.236 1.109-2.066 0-0.988-0.44-2.283-1.266-2.283h1.246l0.879-1h-3.929c-1.761 0-3.419 1.53-3.419 3.075 0 1.581 1.201 2.954 2.993 2.954 0.125 0 0.246 0.046 0.364 0.038-0.116 0.223-0.2 0.498-0.2 0.758 0 0.439 0.237 0.808 0.535 1.098-0.226 0-0.443 0.012-0.681 0.012-2.182 0-3.861 1.393-3.861 2.833 0 1.419 1.841 2.309 4.023 2.309 2.486 0 3.86-1.41 3.86-2.83 0.001-1.138-0.335-1.819-1.373-2.552zm-2.099-1.969c-1.013-0.03-1.975-1.132-2.149-2.461-0.175-1.33 0.503-2.347 1.516-2.317 1.011 0.031 1.974 1.097 2.148 2.426 0.176 1.329-0.503 2.383-1.515 2.352zm-0.396 6.725c-1.508 0-2.598-0.955-2.598-2.101 0-1.124 1.351-2.059 2.859-2.043 0.352 0.004 0.68 0.06 0.978 0.157 0.818 0.569 1.406 0.891 1.572 1.54 0.031 0.131 0.047 0.267 0.047 0.405 0 1.146-0.738 2.042-2.858 2.042z" fill="#2B2B2B"/>
<polygon points="41.905 3.516 39.413 3.516 39.413 1.024 38.413 1.024 38.413 3.516 35.921 3.516 35.921 4.516 38.413 4.516 38.413 7.008 39.413 7.008 39.413 4.516 41.905 4.516" fill="#2B2B2B"/>
<path d="m121.92 29.755c-0.552 0.244-1.145 0.41-1.768 0.482 0.635-0.381 1.123-0.982 1.353-1.703-0.595 0.354-1.253 0.609-1.954 0.748-0.562-0.598-1.361-0.973-2.246-0.973-1.7 0-3.078 1.379-3.078 3.078 0 0.24 0.027 0.475 0.08 0.701-2.557-0.129-4.825-1.355-6.342-3.215-0.265 0.455-0.417 0.982-0.417 1.547 0 1.066 0.543 2.01 1.37 2.561-0.505-0.016-0.979-0.152-1.394-0.385v0.039c0 1.492 1.061 2.734 2.468 3.018-0.258 0.07-0.53 0.107-0.811 0.107-0.199 0-0.392-0.02-0.58-0.055 0.392 1.223 1.528 2.113 2.875 2.137-1.053 0.826-2.38 1.318-3.822 1.318-0.249 0-0.493-0.016-0.734-0.045 1.362 0.873 2.979 1.385 4.717 1.385 5.661 0 8.756-4.689 8.756-8.756 0-0.135-0.003-0.268-0.009-0.398 0.59-0.432 1.11-0.973 1.52-1.591" fill="#3AA9E0"/>
<path d="m143.73 27.025v3.793h3.559v2.355h-3.559v3.846c0 0.869 0.045 1.428 0.138 1.674 0.092 0.248 0.263 0.445 0.514 0.592 0.332 0.199 0.711 0.299 1.14 0.299 0.758 0 1.514-0.248 2.266-0.742v2.367c-0.641 0.301-1.223 0.514-1.741 0.635-0.521 0.121-1.082 0.182-1.687 0.182-0.686 0-1.291-0.086-1.818-0.26-0.527-0.172-0.977-0.42-1.35-0.74-0.371-0.32-0.629-0.662-0.772-1.021-0.144-0.361-0.216-0.885-0.216-1.57v-5.262h-1.658v-2.123c0.589-0.191 1.094-0.465 1.514-0.824 0.42-0.357 0.758-0.787 1.012-1.287 0.255-0.502 0.43-1.139 0.524-1.912h2.15" fill="#47526B"/>
<path d="m161.94 31.474l0.705 0.957s1.008-0.629 1.133-0.705c0.127-0.076 0.907 0.252 1.512 2.418s0.906 3.449 1.209 4.559c0.302 1.109 0.939 2.318 2.242 2.318 1.621 0 2.693-1.035 4.004-2.645 1.31-1.613 4.193-5.053 4.193-7.684 0-2.211-1.398-2.633-2.633-2.633s-3.072 0.971-3.803 3.439c1.587-0.43 2.141 0.133 2.141 0.932 0 1.035-1.728 3.904-2.281 3.904-0.721 0-1.09-1.268-1.194-1.795-0.216-1.092-0.487-2.73-0.739-4.066s-0.797-2.414-1.854-2.414c-0.53 0-1.141 0.348-2.291 1.389-0.82 0.747-2.34 2.026-2.34 2.026z" fill="#86C9EF"/>
<path d="m203.09 39.191c0.603-0.602 0.827-2.141 0.827-4.641s-0.154-4.047-0.889-4.719c-0.688-0.629-1.562-0.836-6.594-0.836-5.033 0-6.064 0.32-6.629 0.836-0.734 0.672-0.889 2.219-0.889 4.719s0.225 4.039 0.827 4.641c0.603 0.604 1.655 0.828 6.672 0.828s6.07-0.225 6.67-0.828zm-8.5-2.445v-4.541l4.929 2.287-4.93 2.254z" fill="#C4302B"/>
<path d="m86.801 42.019v-7.039h-1.86v-2.533h1.861v-2.166c0-1.699 1.099-3.262 3.632-3.262 1.026 0 1.784 0.098 1.784 0.098l-0.06 2.367s-0.774-0.008-1.618-0.008c-0.913 0-1.059 0.42-1.059 1.119v1.85h2.75v2.535h-2.75v7.039h-2.68" fill="#3B5998"/>
<path d="m61.422 27.019c-4.143 0-7.501 3.359-7.501 7.5 0 3.072 1.847 5.709 4.489 6.869-0.021-0.523-0.004-1.152 0.131-1.721 0.145-0.609 0.965-4.086 0.965-4.086s-0.24-0.48-0.24-1.188c0-1.111 0.645-1.941 1.446-1.941 0.683 0 1.012 0.512 1.012 1.127 0 0.686-0.438 1.711-0.663 2.66-0.188 0.795 0.399 1.443 1.184 1.443 1.421 0 2.378-1.824 2.378-3.986 0-1.645-1.107-2.875-3.122-2.875-2.274 0-3.692 1.697-3.692 3.592 0 0.654 0.193 1.113 0.494 1.471 0.139 0.164 0.158 0.23 0.108 0.418-0.036 0.139-0.119 0.471-0.153 0.602-0.05 0.191-0.204 0.26-0.375 0.189-1.048-0.428-1.536-1.576-1.536-2.867 0-2.129 1.797-4.684 5.361-4.684 2.863 0 4.748 2.07 4.748 4.297 0 2.941-1.635 5.139-4.046 5.139-0.81 0-1.571-0.438-1.833-0.934 0 0-0.435 1.727-0.527 2.061-0.159 0.578-0.471 1.156-0.755 1.607 0.674 0.197 1.387 0.307 2.126 0.307 4.141 0 7.499-3.357 7.499-7.5 0-4.141-3.357-7.5-7.498-7.5" fill="#CA2027"/>
<path d="m11.21 34.298c-0.21-0.062-0.354-0.105-0.244-0.381 0.238-0.602 0.263-1.117 0.004-1.486-0.484-0.691-1.81-0.654-3.329-0.018 0 0-0.477 0.209-0.355-0.17 0.233-0.752 0.198-1.381-0.165-1.744-0.824-0.824-3.016 0.031-4.896 1.91-1.407 1.409-2.225 2.901-2.225 4.19 0 2.467 3.164 3.967 6.26 3.967 4.058 0 6.757-2.355 6.757-4.229 0.002-1.13-0.951-1.773-1.807-2.039zm-4.94 5.385c-2.47 0.244-4.602-0.873-4.763-2.496-0.16-1.621 1.713-3.133 4.183-3.377 2.471-0.244 4.603 0.873 4.763 2.494 0.159 1.621-1.713 3.135-4.183 3.379z" fill="#E6162D"/>
<path d="m13.905 29.783c-0.98-1.086-2.426-1.5-3.76-1.217-0.309 0.066-0.505 0.371-0.439 0.68s0.37 0.506 0.678 0.439c0.949-0.203 1.977 0.092 2.673 0.865 0.696 0.771 0.885 1.824 0.587 2.746-0.097 0.301 0.067 0.623 0.368 0.719 0.3 0.098 0.623-0.066 0.72-0.367v-0.002c0.418-1.297 0.153-2.777-0.827-3.863" fill="#E6162D"/>
<path d="m12.4 31.142c-0.477-0.529-1.182-0.73-1.832-0.592-0.266 0.055-0.435 0.316-0.378 0.584 0.057 0.264 0.318 0.434 0.583 0.377 0.318-0.066 0.663 0.031 0.896 0.289 0.233 0.26 0.296 0.611 0.196 0.92-0.083 0.258 0.058 0.537 0.316 0.621 0.259 0.082 0.536-0.061 0.619-0.318 0.205-0.631 0.078-1.352-0.4-1.881" fill="#E6162D"/>
<path d="m6.516 35.058c-1.175-0.307-2.504 0.279-3.015 1.316-0.52 1.055-0.017 2.229 1.171 2.611 1.23 0.396 2.68-0.211 3.184-1.352 0.498-1.114-0.123-2.26-1.34-2.575zm-0.897 2.697c-0.239 0.381-0.75 0.549-1.136 0.373-0.38-0.174-0.492-0.617-0.253-0.988 0.236-0.369 0.73-0.535 1.113-0.375 0.387 0.166 0.51 0.606 0.276 0.99zm0.787-1.009c-0.086 0.146-0.277 0.219-0.427 0.156-0.147-0.061-0.193-0.225-0.11-0.371 0.086-0.145 0.27-0.215 0.417-0.154 0.149 0.052 0.202 0.22 0.12 0.369z" fill="#E6162D"/>
<path id="g_2_" d="m33.463 35.705c-0.354-0.25-1.034-0.861-1.034-1.223 0-0.42 0.121-0.629 0.754-1.123 0.65-0.508 1.109-1.232 1.109-2.062 0-0.988-0.44-2.281-1.266-2.281h1.246l0.879-1h-3.929c-1.761 0-3.419 1.527-3.419 3.072 0 1.582 1.201 2.953 2.993 2.953 0.125 0 0.246 0.045 0.364 0.037-0.116 0.223-0.2 0.498-0.2 0.758 0 0.439 0.237 0.809 0.535 1.098-0.226 0-0.443 0.014-0.681 0.014-2.182 0-3.861 1.393-3.861 2.832 0 1.42 1.841 2.311 4.023 2.311 2.486 0 3.86-1.41 3.86-2.83 0.001-1.142-0.335-1.822-1.373-2.556zm-2.099-1.969c-1.013-0.029-1.975-1.133-2.149-2.461-0.175-1.33 0.503-2.348 1.516-2.316 1.011 0.029 1.974 1.096 2.148 2.426 0.176 1.327-0.503 2.382-1.515 2.351zm-0.396 6.724c-1.508 0-2.598-0.955-2.598-2.102 0-1.123 1.351-2.059 2.859-2.043 0.352 0.004 0.68 0.061 0.978 0.158 0.818 0.568 1.406 0.891 1.572 1.539 0.031 0.131 0.047 0.268 0.047 0.406 0 1.146-0.738 2.042-2.858 2.042z" fill="#E6162D"/>
<polygon points="41.905 30.511 39.413 30.511 39.413 28.019 38.413 28.019 38.413 30.511 35.921 30.511 35.921 31.511 38.413 31.511 38.413 34.003 39.413 34.003 39.413 31.511 41.905 31.511" fill="#E6162D"/>
<path d="m229.94 0h-12.967c-0.634 0-1.047 0.447-1.047 1.08v12.804c0 0.633 0.381 1.08 1.014 1.08h13c0.633 0 0.98-0.414 0.98-1.046v-12.838c0.01-0.634-0.34-1.08-0.97-1.08zm-3.57 7.56c0 1.68-1.362 3.042-3.042 3.042-1.682 0-3.043-1.362-3.043-3.042 0-1.467 1.037-2.69 2.419-2.978 0.009-0.002 0.018-0.003 0.028-0.005 0.082-0.017 0.166-0.029 0.252-0.039 0.017-0.002 0.035-0.004 0.052-0.005 0.095-0.009 0.288-0.015 0.288-0.015l0.021 0.001s0.167 0.006 0.25 0.013c0.037 0.004 0.074 0.008 0.111 0.013 0.05 0.006 0.101 0.014 0.149 0.022 0.043 0.008 0.088 0.016 0.129 0.024 0.035 0.009 0.069 0.018 0.104 0.027 0.104 0.027 0.205 0.058 0.304 0.095 0.014 0.005 0.041 0.015 0.041 0.015s0.123 0.052 0.184 0.08c0.007 0.003 0.013 0.005 0.019 0.008 0.654 0.315 1.179 0.857 1.472 1.524h0.006c0.17 0.375 0.26 0.786 0.26 1.22zm2.26 5.184h-10.387l0.021-6.403h0.616c-0.09 0.358-0.144 0.731-0.144 1.117 0 2.525 2.055 4.58 4.58 4.58 2.524 0 4.58-2.054 4.58-4.58 0-0.42-0.135-0.793-0.336-1.117h1.067v6.403zm0.01-8.081h-2.332l-0.005-2.357h2.337v2.357z" fill="#2B2B2B"/>
<path d="m229.94 27.029h-12.967c-0.634 0-1.047 0.447-1.047 1.08v12.805c0 0.633 0.381 1.078 1.014 1.078h13c0.633 0 0.98-0.412 0.98-1.045v-12.838c0.01-0.633-0.34-1.08-0.97-1.08zm-3.57 7.56c0 1.68-1.362 3.043-3.042 3.043-1.682 0-3.043-1.363-3.043-3.043 0-1.467 1.037-2.689 2.419-2.979 0.009-0.002 0.018-0.002 0.028-0.004 0.082-0.018 0.166-0.029 0.252-0.039 0.017-0.002 0.035-0.004 0.052-0.006 0.095-0.008 0.288-0.014 0.288-0.014h0.021s0.167 0.006 0.25 0.014c0.037 0.004 0.074 0.008 0.111 0.012 0.05 0.008 0.101 0.016 0.149 0.023 0.043 0.008 0.088 0.016 0.129 0.023 0.035 0.01 0.069 0.018 0.104 0.027 0.104 0.027 0.205 0.059 0.304 0.094 0.014 0.006 0.041 0.016 0.041 0.016s0.123 0.053 0.184 0.08c0.007 0.004 0.013 0.006 0.019 0.008 0.654 0.314 1.179 0.857 1.472 1.525h0.006c0.17 0.377 0.26 0.787 0.26 1.22zm2.26 5.184h-10.387l0.021-6.402h0.616c-0.09 0.357-0.144 0.73-0.144 1.117 0 2.525 2.055 4.58 4.58 4.58 2.524 0 4.58-2.055 4.58-4.58 0-0.42-0.135-0.793-0.336-1.117h1.067v6.402zm0.01-8.08h-2.332l-0.005-2.357h2.337v2.357z" fill="#634D40"/>
</svg>
